<?xml version="1.0" encoding="UTF-8" standalone="no"?>
<svg width="50px" height="50px" viewBox="0 0 50 50" version="1.1" xmlns="http://www.w3.org/2000/svg" xmlns:xlink="http://www.w3.org/1999/xlink" xmlns:sketch="http://www.bohemiancoding.com/sketch/ns">
    <!-- Generator: Sketch 3.2.2 (9983) - http://www.bohemiancoding.com/sketch -->
    <title>btn-directions</title>
    <desc>Created with Sketch.</desc>
    <defs></defs>
    <g id="Page-1" stroke="none" stroke-width="1" fill="none" fill-rule="evenodd" sketch:type="MSPage">
        <g id="btn-directions" sketch:type="MSArtboardGroup">
            <rect id="bg" fill-opacity="0" fill="#D8D8D8" sketch:type="MSShapeGroup" x="0" y="0" width="50" height="50"></rect>
            <path d="M28.4736115,23.6727778 L34.4250006,23.6727778 L34.4250006,24.895 L28.4736115,24.895 L28.4736115,23.6727778 Z M16.5678577,13.8888889 L22.5192468,13.8888889 L22.5192468,15.1111111 L16.5678577,15.1111111 L16.5678577,13.8888889 Z M26.0990073,20.0061111 L34.4291666,20.0061111 L38,15.6977778 L34.4291666,11.4505556 L26.0990073,11.4505556 L26.0990073,9 L24.9087295,9 L24.9087295,11.4505556 L14.1902778,11.4505556 L14.1902778,20.0061111 L24.9087295,20.0061111 L24.9087295,21.2222222 L16.5708334,21.2222222 L13,25.4694444 L16.5708334,29.7777778 L24.9087295,29.7777778 L24.9087295,42 L26.0990073,42 L26.0990073,29.7777778 L36.8097222,29.7777778 L36.8097222,21.2222222 L26.0990073,21.2222222 L26.0990073,20.0061111 L26.0990073,20.0061111 Z" id="Fill-129" fill="#FFFFFF" sketch:type="MSShapeGroup"></path>
        </g>
    </g>
</svg>