<?xml version="1.0" encoding="UTF-8" standalone="no"?>
<svg width="50px" height="50px" viewBox="0 0 50 50" version="1.1" xmlns="http://www.w3.org/2000/svg" xmlns:xlink="http://www.w3.org/1999/xlink" xmlns:sketch="http://www.bohemiancoding.com/sketch/ns">
    <!-- Generator: Sketch 3.2.2 (9983) - http://www.bohemiancoding.com/sketch -->
    <title>menu-locations</title>
    <desc>Created with Sketch.</desc>
    <defs></defs>
    <g id="Page-1" stroke="none" stroke-width="1" fill="none" fill-rule="evenodd" sketch:type="MSPage">
        <g id="menu-locations" sketch:type="MSArtboardGroup">
            <rect id="bg" fill-opacity="0" fill="#D8D8D8" sketch:type="MSShapeGroup" x="0" y="0" width="50" height="50"></rect>
            <path d="M25,8 C20.0575,8 16.0525,11.915625 16.0525,16.75 C16.0525,25.10625 25,36 25,36 C25,36 33.9475,25.10625 33.9475,16.75 C33.9475,11.915625 29.9425,8 25,8 L25,8 Z M25,20.99375 C22.66,20.99375 20.77,19.1416667 20.77,16.859375 C20.77,14.5770833 22.6675,12.7177083 25,12.7177083 C27.34,12.7177083 29.23,14.5697917 29.23,16.859375 C29.23,19.1416667 27.34,20.99375 25,20.99375 L25,20.99375 Z" id="Shape" fill-opacity="0.87" fill="#FFFFFF" sketch:type="MSShapeGroup"></path>
        </g>
    </g>
</svg>