<?xml version="1.0" encoding="UTF-8" standalone="no"?>
<svg width="50px" height="50px" viewBox="0 0 50 50" version="1.1" xmlns="http://www.w3.org/2000/svg" xmlns:xlink="http://www.w3.org/1999/xlink" xmlns:sketch="http://www.bohemiancoding.com/sketch/ns">
    <!-- Generator: Sketch 3.2.2 (9983) - http://www.bohemiancoding.com/sketch -->
    <title>menu-logout</title>
    <desc>Created with Sketch.</desc>
    <defs></defs>
    <g id="Page-1" stroke="none" stroke-width="1" fill="none" fill-rule="evenodd" sketch:type="MSPage">
        <g id="menu-logout" sketch:type="MSArtboardGroup">
            <rect id="bg" fill-opacity="0" fill="#D8D8D8" sketch:type="MSShapeGroup" x="0" y="0" width="50" height="50"></rect>
            <path d="M13,16.25 L8.5,20.75 L13,25.25 L13,21.875 L23.6875,21.875 C23.996875,21.875 24.25,21.621875 24.25,21.3125 L24.25,20.1875 C24.25,19.878125 23.996875,19.625 23.6875,19.625 L13,19.625 L13,16.25 Z M34.9375,9.5 L15.8125,9.5 C15.503125,9.5 15.25,9.753125 15.25,10.0625 L15.25,17.375 L17.5,17.375 L17.5,11.75 L29.875,11.75 L26.5,14 L26.5,29.75 L17.5,29.75 L17.5,24.125 L15.25,24.125 L15.25,31.4375 C15.25,31.746875 15.503125,32 15.8125,32 L26.5,32 L26.5,36.5 L34.853125,32.3234375 C35.5,32 35.5,31.8945312 35.5,31.296875 L35.5,10.0625 C35.5,9.753125 35.246875,9.5 34.9375,9.5 Z" id="Shape" fill-opacity="0.57" fill="#FFFFFF" sketch:type="MSShapeGroup"></path>
        </g>
    </g>
</svg>