<?xml version="1.0" encoding="UTF-8" standalone="no"?>
<svg width="50px" height="50px" viewBox="0 0 50 50" version="1.1" xmlns="http://www.w3.org/2000/svg" xmlns:xlink="http://www.w3.org/1999/xlink" xmlns:sketch="http://www.bohemiancoding.com/sketch/ns">
    <!-- Generator: Sketch 3.2.2 (9983) - http://www.bohemiancoding.com/sketch -->
    <title>nav-logo</title>
    <desc>Created with Sketch.</desc>
    <defs></defs>
    <g id="Page-1" stroke="none" stroke-width="1" fill="none" fill-rule="evenodd" sketch:type="MSPage">
        <g id="nav-logo" sketch:type="MSArtboardGroup">
            <rect id="bg" fill-opacity="0" fill="#D8D8D8" sketch:type="MSShapeGroup" x="0" y="0" width="50" height="50"></rect>
            <g id="Imported-Layers" sketch:type="MSLayerGroup" transform="translate(3.000000, 3.000000)">
                <path d="M26.2854134,40.7349823 L17.5678163,40.7349823 L19.6030106,41.9010601 L24.2698869,41.9010601 L26.2854134,40.7349823 M7.64363958,36.3928198 L9.59814134,39.7949682 L9.59798587,39.794735 C9.94516608,40.3954205 10.4338304,40.914636 11.0185795,41.2914346 C11.3110318,41.4794841 11.627894,41.6316184 11.9633357,41.7371095 C12.2985442,41.842523 12.6526431,41.9010601 13.0156042,41.9010601 L13.0159152,41.9010601 L17.2574064,41.9010601 L15.222212,40.7349823 L13.0159152,40.7349823 C12.7781131,40.7349823 12.5427208,40.6968127 12.3130035,40.6246714 C11.9687774,40.5166148 11.6376113,40.3308198 11.3447703,40.0868763 C11.0520071,39.843477 10.7985795,39.5423958 10.6083534,39.212629 L9.64828269,37.5414064 L7.64363958,36.3928198 M36.5451095,36.146311 L34.5358799,37.3088127 L33.4379788,39.226311 L33.4389894,39.2246784 C33.1860283,39.6639788 32.820424,40.0482403 32.3997809,40.3156608 C31.9786714,40.5837032 31.5081979,40.7349823 31.0317385,40.7349823 L31.0311166,40.7349823 L28.6139152,40.7349823 L26.5983887,41.9010601 L31.0311166,41.9010601 C31.7562615,41.9009046 32.441682,41.6717314 33.0262756,41.2991307 C33.6114912,40.9257527 34.1013993,40.4090247 34.4490459,39.8074064 L36.5451095,36.146311 M40.1908127,27.4317456 L35.6892085,35.2942968 L37.6984382,34.1318728 L40.1908127,29.7786714 L40.1908127,27.4317456 M3.34275618,26.5655053 L3.34275618,28.9063675 L6.49279859,34.3894982 L8.4974417,35.5380848 L3.34275618,26.5655053 M2.17667845,17.4039435 L0.591045936,20.1373852 L0.59034629,20.138629 C0.237257951,20.7509753 0.0624240283,21.4396608 0.0624240283,22.126947 C0.0624240283,22.814311 0.237257951,23.5029187 0.59034629,24.1153428 L0.589879859,24.1144099 L2.17667845,26.8766148 L2.17667845,24.5357527 L1.60063604,23.5329258 L1.60040283,23.5326926 C1.35358304,23.105053 1.22842403,22.6166996 1.22850177,22.126947 C1.22842403,21.637583 1.35342756,21.1495406 1.5999364,20.722212 L2.17667845,19.7278587 L2.17667845,17.4039435 M41.3568905,16.5284523 L41.3568905,18.8561767 L42.4470177,20.7396254 L42.446629,20.7389258 C42.6956254,21.170841 42.8183746,21.642947 42.81853,22.115364 C42.8183746,22.5877032 42.6956254,23.0598092 42.4465512,23.4918021 L41.3568905,25.3950742 L41.3568905,27.742 L43.4576184,24.0728975 L43.4566078,24.07453 C43.8075972,23.4664594 43.9847633,22.7907562 43.9846078,22.115364 C43.9847633,21.439894 43.8075972,20.7641908 43.4566078,20.1561979 L43.4562191,20.1554982 L41.3568905,16.5284523 M35.4302615,8.61677032 L40.1908127,16.841583 L40.1908127,14.5137809 L37.4578375,9.7920212 L35.4302615,8.61677032 M8.77030389,8.36093286 L6.74809187,9.52320141 L3.34275618,15.3937032 L3.34275618,17.7176961 L8.77030389,8.36093286 M16.2436961,2.72084806 L13.0159152,2.72084806 C12.3252085,2.72084806 11.6522261,2.88067845 11.0587703,3.19831802 C10.4657032,3.51525795 9.95340636,3.99319435 9.59798587,4.61012721 L9.59868551,4.60896113 L7.91844523,7.50557597 L9.94065724,6.34338516 L10.6084311,5.19215548 L10.6080424,5.19285512 C10.8532297,4.76879152 11.1964452,4.44796466 11.6092367,4.22633216 C12.0216396,4.00539929 12.5047845,3.8869258 13.0159152,3.8869258 L14.2147986,3.8869258 L16.2436961,2.72084806 M25.2587208,2.72084806 L18.5837809,2.72084806 L16.5548834,3.8869258 L27.2703604,3.8869258 L25.2587208,2.72084806 M31.0311166,2.72084806 L27.5839576,2.72084806 L29.5955972,3.8869258 L31.0311166,3.8869258 L31.0313498,3.8869258 C31.5451237,3.8869258 32.0294346,4.00260071 32.4411378,4.21980212 C32.8532297,4.43785866 33.194424,4.75355477 33.4389894,5.17629682 L33.4393781,5.17699647 L34.2563322,6.5884947 L36.2839081,7.76374558 L34.4477244,4.59131449 L34.4490459,4.5935689 C34.0930035,3.97539223 33.5786078,3.50048763 32.9849187,3.18828975 C32.390841,2.87523675 31.7191025,2.7209258 31.0311166,2.72084806" id="Fill-1" fill="#B4B4B4" sketch:type="MSShapeGroup"></path>
                <path d="M26.5983887,41.9010601 L24.2698869,41.9010601 L23.3186007,42.4514488 L23.3192226,42.4510601 C22.8874629,42.7000565 22.414424,42.8229611 21.9410742,42.8230389 C21.4677244,42.8229611 20.9947633,42.7000565 20.5630035,42.4510601 L20.5622261,42.4506714 L19.6030106,41.9010601 L17.2574064,41.9010601 L19.9818304,43.4619717 L19.9802756,43.4611166 C20.5882686,43.8120283 21.2644382,43.9891166 21.9402968,43.9891166 L21.9410742,43.9891166 L21.9419293,43.9891166 C22.617788,43.9891166 23.2938799,43.812106 23.9018728,43.4611166 L23.9025724,43.4608057 L26.5983887,41.9010601 M8.4974417,35.5380848 L9.64828269,37.5414064 L15.222212,40.7349823 L17.5678163,40.7349823 L8.4974417,35.5380848 M35.6892085,35.2942968 L26.2854134,40.7349823 L28.6139152,40.7349823 L34.5358799,37.3088127 L35.6892085,35.2942968 M41.3568905,27.742 L40.1908127,29.7786714 L40.1908127,31.0356254 C40.1908127,31.5473781 40.0729611,32.0307562 39.8528057,32.4430035 C39.6318728,32.8556396 39.3120565,33.1983887 38.8883816,33.4434982 L38.8848057,33.4455194 L37.6984382,34.1318728 L36.5451095,36.146311 L39.4716537,34.4531661 L39.4710318,34.453477 C40.0882756,34.0979788 40.5655901,33.5852933 40.8815194,32.9920707 C41.1981484,32.3984594 41.3568905,31.725788 41.3568905,31.0356254 L41.3568905,27.742 M2.17667845,26.8766148 L2.17667845,31.0356254 C2.17675618,31.7588269 2.4020424,32.4437032 2.77161131,33.0287633 C3.14187986,33.6144452 3.65635336,34.1054417 4.25890459,34.453477 L4.25960424,34.4539435 L7.64363958,36.3928198 L6.49279859,34.3894982 L4.84007774,33.4426431 L4.84163251,33.4434982 C4.40310954,33.1909258 4.02234629,32.8264099 3.75764664,32.406311 C3.49216961,31.9855124 3.34267845,31.5143392 3.34275618,31.0356254 L3.34275618,28.9063675 L2.17667845,26.8766148 M3.34275618,17.7176961 L2.17667845,19.7278587 L2.17667845,24.5357527 L3.34275618,26.5655053 L3.34275618,17.7176961 M40.1908127,16.841583 L40.1908127,27.4317456 L41.3568905,25.3950742 L41.3568905,18.8561767 L40.1908127,16.841583 M3.34275618,13.020424 L2.17667845,13.020424 L2.17667845,17.4039435 L3.34275618,15.3937032 L3.34275618,13.020424 M36.2839081,7.76374558 L37.4578375,9.7920212 L38.8724452,10.6120071 L38.8734558,10.6125512 C39.2982968,10.8582049 39.6227774,11.2028198 39.8468975,11.616 C40.0703958,12.0288693 40.1908127,12.511159 40.1908127,13.020424 L40.1908127,14.5137809 L41.3568905,16.5284523 L41.3568905,13.020424 C41.3568905,12.3278516 41.1932509,11.6540141 40.8725018,11.0610247 C40.5522968,10.4683463 40.0722615,9.95744876 39.456106,9.6024947 L39.4571943,9.60311661 L36.2839081,7.76374558 M7.91844523,7.50557597 L4.27072085,9.60202827 L4.26994346,9.6024947 C3.66824735,9.95014134 3.15159717,10.4400495 2.77829682,11.0253428 C2.40592933,11.6099364 2.17683392,12.2953569 2.17667845,13.020424 L3.34275618,13.020424 C3.34260071,12.543576 3.49380212,12.0728693 3.76192226,11.651682 C4.02918728,11.2311166 4.41329329,10.8655124 4.85259364,10.6125512 L4.85181625,10.6130177 L6.74809187,9.52320141 L7.91844523,7.50557597 M16.5548834,3.8869258 L14.2147986,3.8869258 L9.94065724,6.34338516 L8.77030389,8.36093286 L16.5548834,3.8869258 M29.5955972,3.8869258 L27.2703604,3.8869258 L35.4302615,8.61677032 L34.2563322,6.5884947 L29.5955972,3.8869258 M21.9294912,0.0668551237 C21.2428269,0.0669328622 20.5549187,0.241844523 19.9427279,0.594855124 L16.2436961,2.72084806 L18.5837809,2.72084806 L20.526,1.60460071 L20.5254558,1.60491166 C20.9532509,1.3579364 21.4407491,1.23293286 21.9294912,1.23293286 L21.9297244,1.23293286 C22.4183887,1.23293286 22.9057314,1.35801413 23.3335265,1.60491166 L23.3325159,1.60436749 L25.2587208,2.72084806 L27.5839576,2.72084806 L23.917265,0.595477032 L23.9161767,0.594855124 C23.3040636,0.241844523 22.6160777,0.0669328622 21.9294912,0.0668551237" id="Fill-2" fill="#DC6757" sketch:type="MSShapeGroup"></path>
                <path d="M17.5678163,40.7349823 L15.222212,40.7349823 L17.2574064,41.9010601 L19.6030106,41.9010601 L17.5678163,40.7349823 M28.6139152,40.7349823 L26.2854134,40.7349823 L24.2698869,41.9010601 L26.5983887,41.9010601 L28.6139152,40.7349823 M6.49279859,34.3894982 L7.64363958,36.3928198 L9.64828269,37.5414064 L8.4974417,35.5380848 L6.49279859,34.3894982 M37.6984382,34.1318728 L35.6892085,35.2942968 L34.5358799,37.3088127 L36.5451095,36.146311 L37.6984382,34.1318728 M41.3568905,25.3950742 L40.1908127,27.4317456 L40.1908127,29.7786714 L41.3568905,27.742 L41.3568905,25.3950742 M2.17667845,24.5357527 L2.17667845,26.8766148 L3.34275618,28.9063675 L3.34275618,26.5655053 L2.17667845,24.5357527 M3.34275618,15.3937032 L2.17667845,17.4039435 L2.17667845,19.7278587 L3.34275618,17.7176961 L3.34275618,15.3937032 M40.1908127,14.5137809 L40.1908127,16.841583 L41.3568905,18.8561767 L41.3568905,16.5284523 L40.1908127,14.5137809 M34.2563322,6.5884947 L35.4302615,8.61677032 L37.4578375,9.7920212 L36.2839081,7.76374558 L34.2563322,6.5884947 M9.94065724,6.34338516 L7.91844523,7.50557597 L6.74809187,9.52320141 L8.77030389,8.36093286 L9.94065724,6.34338516 M18.5837809,2.72084806 L16.2436961,2.72084806 L14.2147986,3.8869258 L16.5548834,3.8869258 L18.5837809,2.72084806 M27.5839576,2.72084806 L25.2587208,2.72084806 L27.2703604,3.8869258 L29.5955972,3.8869258 L27.5839576,2.72084806" id="Fill-3" fill="#D35D4D" sketch:type="MSShapeGroup"></path>
            </g>
        </g>
    </g>
</svg>