<?xml version="1.0" encoding="UTF-8" standalone="no"?>
<svg width="50px" height="50px" viewBox="0 0 50 50" version="1.1" xmlns="http://www.w3.org/2000/svg" xmlns:xlink="http://www.w3.org/1999/xlink" xmlns:sketch="http://www.bohemiancoding.com/sketch/ns">
    <!-- Generator: Sketch 3.2.2 (9983) - http://www.bohemiancoding.com/sketch -->
    <title>nav-logo</title>
    <desc>Created with Sketch.</desc>
    <defs></defs>
    <g id="Page-1" stroke="none" stroke-width="1" fill="none" fill-rule="evenodd" sketch:type="MSPage">
        <g id="nav-logo" sketch:type="MSArtboardGroup">
            <rect id="bg" fill-opacity="0" fill="#D8D8D8" sketch:type="MSShapeGroup" x="0" y="0" width="50" height="50"></rect>
            <path d="M41.3497164,25 C41.3497164,21.0683465 42.6989423,17.5555906 41.5096823,15.5 C40.432758,13.6374016 36.9108111,12.735874 34.0502964,10.9702205 C30.5903587,8.83444094 27.6267948,5.99970079 25.0221058,6 C22.5836736,6 19.7432295,8.90086614 16.563382,10.7832126 C13.3835346,12.6655591 9.8642837,13.5293858 8.53422974,15.5 C7.20507447,17.4694173 8.77477779,21.0982677 8.77477779,24.8462047 C8.77477779,28.5696063 7.50493573,32.3588346 8.53422974,34.5 C9.57730359,36.6692913 13.5267251,37.7335906 16.8629437,39.5824252 C20.1164834,41.3854803 22.7421417,44 25.0221058,44 C27.6276935,44 30.2153075,41.1206772 33.6758442,38.984 C36.5351607,37.2189449 40.4330576,36.362 41.5096823,34.5 C42.6995414,32.4426142 41.3497164,28.7231024 41.3497164,25 L41.3497164,25 Z M29.5293112,20.1608346 C28.8978351,19.5061575 28.1004019,19.0528504 27.137311,18.6486142 C26.1739205,18.244378 25.0442734,18.1181102 23.7495677,18.1181102 L20.206951,18.1181102 L20.206951,32.1811024 L23.7495677,32.1811024 C25.0442734,32.1811024 26.1739205,31.9058268 27.137311,31.5015906 C28.1004019,31.0973543 28.8978351,30.5306457 29.5293112,29.8756693 C30.1604877,29.2209921 30.6343943,28.4547087 30.9498328,27.613622 C31.2655708,26.7734331 31.4231402,25.8988346 31.4231402,25.0092756 C31.4231402,24.1200157 31.2655708,23.2502047 30.9498328,22.4094173 C30.6343943,21.5686299 30.1604877,20.815811 29.5293112,20.1608346 M32.4677119,28.7596063 C31.9332938,29.8271969 31.2329186,30.7206457 30.3668857,31.4399528 C29.5005532,32.1598583 28.5293742,32.7427244 27.4527495,33.098189 C26.3761247,33.454252 25.3036938,33.6771654 24.2351572,33.6771654 L18.4095808,33.6771654 L18.4095808,16.6220472 L24.2351572,16.6220472 C25.3036938,16.6220472 26.3761247,16.6959528 27.4527495,17.0514173 C28.5293742,17.4071811 29.5005532,17.8931024 30.3668857,18.6124094 C31.2329186,19.3320157 31.9332938,20.2033228 32.4677119,21.2786929 C33.0018304,22.3543622 33.2690395,23.5904094 33.2690395,25.0131654 C33.2690395,26.452378 33.0018304,27.692315 32.4677119,28.7596063 L32.4677119,28.7596063 Z" id="Logo" fill="#D7503E" sketch:type="MSShapeGroup"></path>
        </g>
    </g>
</svg>