<?xml version="1.0" encoding="UTF-8" standalone="no"?>
<svg width="50px" height="50px" viewBox="0 0 50 50" version="1.1" xmlns="http://www.w3.org/2000/svg" xmlns:xlink="http://www.w3.org/1999/xlink" xmlns:sketch="http://www.bohemiancoding.com/sketch/ns">
    <!-- Generator: Sketch 3.2.2 (9983) - http://www.bohemiancoding.com/sketch -->
    <title>nav-menu</title>
    <desc>Created with Sketch.</desc>
    <defs></defs>
    <g id="Page-1" stroke="none" stroke-width="1" fill="none" fill-rule="evenodd" sketch:type="MSPage">
        <g id="nav-menu" sketch:type="MSArtboardGroup">
            <g id="icon-/-menu" sketch:type="MSLayerGroup">
                <rect id="bg" fill-opacity="0" fill="#D8D8D8" sketch:type="MSShapeGroup" x="0" y="0" width="50" height="50"></rect>
                <path d="M25,23.3125 C25.928125,23.3125 26.6875,24.071875 26.6875,25 C26.6875,25.928125 25.928125,26.6875 25,26.6875 C24.071875,26.6875 23.3125,25.928125 23.3125,25 C23.3125,24.071875 24.071875,23.3125 25,23.3125 L25,23.3125 Z M25,22 C23.340625,22 22,23.340625 22,25 C22,26.659375 23.340625,28 25,28 C26.659375,28 28,26.659375 28,25 C28,23.340625 26.659375,22 25,22 Z M15.0375,23.3125 C15.965625,23.3125 16.725,24.071875 16.725,25 C16.725,25.928125 15.965625,26.6875 15.0375,26.6875 C14.109375,26.6875 13.35,25.928125 13.35,25 C13.35,24.071875 14.109375,23.3125 15.0375,23.3125 Z M15.0375,22 C13.378125,22 12.0375,23.340625 12.0375,25 C12.0375,26.659375 13.378125,28 15.0375,28 C16.696875,28 18.0375,26.659375 18.0375,25 C18.0375,23.340625 16.6875,22 15.0375,22 Z M35,23.3125 C35.928125,23.3125 36.6875,24.071875 36.6875,25 C36.6875,25.928125 35.928125,26.6875 35,26.6875 C34.071875,26.6875 33.3125,25.928125 33.3125,25 C33.3125,24.071875 34.071875,23.3125 35,23.3125 Z M35,22 C33.340625,22 32,23.340625 32,25 C32,26.659375 33.340625,28 35,28 C36.659375,28 38,26.659375 38,25 C38,23.340625 36.659375,22 35,22 L35,22 L35,22 Z" id="Shape" fill="#373737" sketch:type="MSShapeGroup"></path>
            </g>
        </g>
    </g>
</svg>